<svg width="38" height="40" viewBox="0 0 38 40" fill="none" xmlns="http://www.w3.org/2000/svg">
<g clip-path="url(#clip0_55_484)">
<path d="M27.564 26.1131C32.3027 23.5112 35.8949 21.5286 36.2046 21.3744C37.1951 20.8477 38.218 19.4536 36.2046 18.3706C35.5545 18.0301 32.0545 16.1092 27.564 13.632L21.3389 19.9188L27.564 26.113V26.1131Z" fill="#FFD900"/>
<path d="M21.339 19.9188L1.51758 39.8959C1.98283 39.9575 2.50809 39.8342 3.12736 39.4937C4.42751 38.782 18.2103 31.2552 27.5641 26.1146L21.339 19.9188Z" fill="#F43249"/>
<path d="M21.3391 19.9189L27.5642 13.663C27.5642 13.663 4.52156 1.08763 3.1274 0.345297C2.60214 0.0342025 2.01353 -0.0582062 1.48682 0.0342025L21.3391 19.9189Z" fill="#00EE76"/>
<path d="M21.3388 19.9188L1.48657 0.0341187C0.680876 0.220396 0 0.932221 0 2.38799V37.542C0 38.8744 0.526861 39.8341 1.51737 39.9267L21.3388 19.9188Z" fill="#00D3FF"/>
</g>
<defs>
<clipPath id="clip0_55_484">
<rect width="37.3723" height="40" fill="white"/>
</clipPath>
</defs>
</svg>
