<svg width="1046" height="680" viewBox="0 0 1046 680" fill="none" xmlns="http://www.w3.org/2000/svg">
<path d="M403.604 607.879C562.755 569.113 661.41 411.015 627.634 251.912C641.671 329.978 592.614 406.324 514.663 425.311C433.615 445.052 351.86 395.443 332.084 314.254C312.345 233.218 230.556 183.468 149.519 203.207C71.568 222.194 22.5424 298.668 36.5823 376.746C37.145 379.717 37.7195 382.686 38.4712 385.772C39.223 388.858 39.9718 391.933 40.9817 394.808C84.1565 551.622 244.465 646.642 403.604 607.879V607.879Z" fill="url(#paint0_linear_36_3)"/>
<path d="M143.564 368.774C149.884 394.722 176.043 410.633 201.991 404.313C227.939 397.993 243.85 371.834 237.53 345.886C231.21 319.938 205.051 304.026 179.103 310.347C153.155 316.667 137.243 342.826 143.564 368.774Z" fill="url(#paint1_linear_36_3)"/>
<path d="M641.733 71.5178C482.582 110.284 382.935 257.397 416.711 416.5C402.674 338.434 452.723 273.073 530.674 254.086C611.722 234.344 693.477 283.953 713.253 365.142C732.992 446.179 814.781 495.928 895.818 476.189C973.769 457.202 1022.79 380.728 1008.75 302.65C1008.19 299.679 1007.62 296.711 1006.87 293.624C1006.11 290.538 1005.37 287.464 1004.36 284.589C961.18 127.775 800.872 32.7548 641.733 71.5178Z" fill="url(#paint2_linear_36_3)"/>
<path d="M909.709 348.243C903.388 322.295 877.23 306.384 851.282 312.704C825.333 319.025 809.422 345.184 815.742 371.132C822.063 397.08 848.222 412.991 874.17 406.671C900.118 400.35 916.029 374.191 909.709 348.243Z" fill="url(#paint3_linear_36_3)"/>
<defs>
<linearGradient id="paint0_linear_36_3" x1="56.3521" y1="459.181" x2="577.677" y2="459.181" gradientUnits="userSpaceOnUse">
<stop stop-color="#D7E5FF"/>
<stop offset="0.458333" stop-color="#D6E4FF"/>
<stop offset="1" stop-color="#B2B4EA"/>
</linearGradient>
<linearGradient id="paint1_linear_36_3" x1="211.178" y1="368.774" x2="143.564" y2="368.774" gradientUnits="userSpaceOnUse">
<stop stop-color="#6496FA"/>
<stop offset="1" stop-color="#82ABFF"/>
</linearGradient>
<linearGradient id="paint2_linear_36_3" x1="849.71" y1="363.182" x2="402.04" y2="363.182" gradientUnits="userSpaceOnUse">
<stop stop-color="#5077C7"/>
<stop offset="1" stop-color="#6496FA"/>
</linearGradient>
<linearGradient id="paint3_linear_36_3" x1="815.742" y1="371.132" x2="937.21" y2="371.132" gradientUnits="userSpaceOnUse">
<stop stop-color="#BFE0FF"/>
<stop offset="0.386131" stop-color="#BBD1F8"/>
<stop offset="1" stop-color="#B2B4EA"/>
</linearGradient>
</defs>
</svg>
