<svg width="40" height="40" viewBox="0 0 40 40" fill="none" xmlns="http://www.w3.org/2000/svg">
<path d="M8.76 0H31.24C36.0781 0 40 3.92187 40 8.76V31.24C40 36.0781 36.0781 40 31.24 40H8.76C3.92187 40 0 36.0781 0 31.24V8.76C0 3.92187 3.92187 0 8.76 0Z" fill="url(#paint0_linear_55_481)"/>
<path d="M12.819 29.0329L12.8228 29.0341L11.4551 31.4029C10.9559 32.2675 9.85029 32.5638 8.98561 32.0646C8.12107 31.5654 7.82467 30.4597 8.32389 29.595L9.33139 27.85L9.42811 27.6825C9.60076 27.4344 10.0269 27.006 10.8792 27.0866C10.8792 27.0866 12.885 27.3043 13.0301 28.3468C13.0301 28.3468 13.0498 28.6897 12.819 29.0329ZM32.2164 22.9829H27.9517C27.6612 22.9633 27.5345 22.8596 27.4845 22.7993L27.4814 22.7938L22.9162 14.8866L22.9103 14.8905L22.6365 14.498C22.1878 13.8118 21.4753 15.5668 21.4753 15.5668C20.6245 17.5224 21.5961 19.7457 21.9347 20.4177L28.2756 31.4005C28.7747 32.265 29.8803 32.5614 30.7451 32.0621C31.6097 31.5629 31.9061 30.4572 31.4067 29.5925L29.8212 26.8463C29.7905 26.7797 29.737 26.5991 30.0622 26.5983H32.2164C33.2148 26.5983 34.0242 25.7889 34.0242 24.7905C34.0242 23.7921 33.2148 22.9827 32.2164 22.9827V22.9829ZM23.933 25.4404C23.933 25.4404 24.1606 26.5983 23.2798 26.5983H7.51436C6.51592 26.5983 5.70654 25.7889 5.70654 24.7905C5.70654 23.7921 6.51592 22.9827 7.51436 22.9827H11.5675C12.2219 22.9449 12.3769 22.5671 12.3769 22.5671L12.3806 22.5689L17.6712 13.4052L17.6697 13.4049C17.7661 13.2279 17.6858 13.0605 17.6719 13.0341L15.9245 10.0077C15.4253 9.14317 15.7215 8.03739 16.5862 7.53832C17.4509 7.0391 18.5565 7.3352 19.0558 8.19989L19.8661 9.60348L20.675 8.20239C21.1742 7.33785 22.2798 7.04145 23.1445 7.54082C24.0092 8.04004 24.3055 9.14551 23.8062 10.0102L16.444 22.7618C16.4119 22.8394 16.402 22.9613 16.6415 22.9827H21.0422L21.0431 23.0257C21.0431 23.0257 23.5865 23.0652 23.933 25.4404Z" fill="white"/>
<defs>
<linearGradient id="paint0_linear_55_481" x1="20" y1="0" x2="20" y2="40" gradientUnits="userSpaceOnUse">
<stop stop-color="#17C9FB"/>
<stop offset="1" stop-color="#1A74E8"/>
</linearGradient>
</defs>
</svg>
