<?xml version="1.0" standalone="no"?>
<svg xmlns:xlink="http://www.w3.org/1999/xlink" id="wave" style="transform:rotate(180deg); transition: 0.3s" viewBox="0 0 1440 490" version="1.1" xmlns="http://www.w3.org/2000/svg"><defs><linearGradient id="sw-gradient-0" x1="0" x2="0" y1="1" y2="0"><stop stop-color="rgba(255, 255, 255, 1)" offset="0%"/><stop stop-color="rgba(100, 150, 250, 1)" offset="100%"/></linearGradient></defs><path style="transform:translate(0, 0px); opacity:1" fill="url(#sw-gradient-0)" d="M0,245L60,212.3C120,180,240,114,360,89.8C480,65,600,82,720,130.7C840,180,960,261,1080,245C1200,229,1320,114,1440,114.3C1560,114,1680,229,1800,236.8C1920,245,2040,147,2160,98C2280,49,2400,49,2520,81.7C2640,114,2760,180,2880,187.8C3000,196,3120,147,3240,147C3360,147,3480,196,3600,196C3720,196,3840,147,3960,147C4080,147,4200,196,4320,236.8C4440,278,4560,310,4680,269.5C4800,229,4920,114,5040,98C5160,82,5280,163,5400,228.7C5520,294,5640,343,5760,367.5C5880,392,6000,392,6120,326.7C6240,261,6360,131,6480,138.8C6600,147,6720,294,6840,302.2C6960,310,7080,180,7200,106.2C7320,33,7440,16,7560,24.5C7680,33,7800,65,7920,138.8C8040,212,8160,327,8280,310.3C8400,294,8520,147,8580,73.5L8640,0L8640,490L8580,490C8520,490,8400,490,8280,490C8160,490,8040,490,7920,490C7800,490,7680,490,7560,490C7440,490,7320,490,7200,490C7080,490,6960,490,6840,490C6720,490,6600,490,6480,490C6360,490,6240,490,6120,490C6000,490,5880,490,5760,490C5640,490,5520,490,5400,490C5280,490,5160,490,5040,490C4920,490,4800,490,4680,490C4560,490,4440,490,4320,490C4200,490,4080,490,3960,490C3840,490,3720,490,3600,490C3480,490,3360,490,3240,490C3120,490,3000,490,2880,490C2760,490,2640,490,2520,490C2400,490,2280,490,2160,490C2040,490,1920,490,1800,490C1680,490,1560,490,1440,490C1320,490,1200,490,1080,490C960,490,840,490,720,490C600,490,480,490,360,490C240,490,120,490,60,490L0,490Z"/><defs><linearGradient id="sw-gradient-1" x1="0" x2="0" y1="1" y2="0"><stop stop-color="rgba(100, 150, 250, 1)" offset="0%"/><stop stop-color="rgba(100, 150, 250, 1)" offset="100%"/></linearGradient></defs><path style="transform:translate(0, 50px); opacity:0.9" fill="url(#sw-gradient-1)" d="M0,441L60,400.2C120,359,240,278,360,277.7C480,278,600,359,720,383.8C840,408,960,376,1080,302.2C1200,229,1320,114,1440,106.2C1560,98,1680,196,1800,236.8C1920,278,2040,261,2160,253.2C2280,245,2400,245,2520,212.3C2640,180,2760,114,2880,106.2C3000,98,3120,147,3240,171.5C3360,196,3480,196,3600,196C3720,196,3840,196,3960,228.7C4080,261,4200,327,4320,351.2C4440,376,4560,359,4680,343C4800,327,4920,310,5040,269.5C5160,229,5280,163,5400,122.5C5520,82,5640,65,5760,106.2C5880,147,6000,245,6120,285.8C6240,327,6360,310,6480,277.7C6600,245,6720,196,6840,179.7C6960,163,7080,180,7200,228.7C7320,278,7440,359,7560,351.2C7680,343,7800,245,7920,236.8C8040,229,8160,310,8280,285.8C8400,261,8520,131,8580,65.3L8640,0L8640,490L8580,490C8520,490,8400,490,8280,490C8160,490,8040,490,7920,490C7800,490,7680,490,7560,490C7440,490,7320,490,7200,490C7080,490,6960,490,6840,490C6720,490,6600,490,6480,490C6360,490,6240,490,6120,490C6000,490,5880,490,5760,490C5640,490,5520,490,5400,490C5280,490,5160,490,5040,490C4920,490,4800,490,4680,490C4560,490,4440,490,4320,490C4200,490,4080,490,3960,490C3840,490,3720,490,3600,490C3480,490,3360,490,3240,490C3120,490,3000,490,2880,490C2760,490,2640,490,2520,490C2400,490,2280,490,2160,490C2040,490,1920,490,1800,490C1680,490,1560,490,1440,490C1320,490,1200,490,1080,490C960,490,840,490,720,490C600,490,480,490,360,490C240,490,120,490,60,490L0,490Z"/></svg>
